<svg width="22" height="21" viewBox="0 0 22 21" fill="none" xmlns="http://www.w3.org/2000/svg">
<path d="M9.90009 0.0999756L19.7991 1.51498L21.2131 11.415L12.0211 20.607C11.8336 20.7944 11.5793 20.8998 11.3141 20.8998C11.0489 20.8998 10.7946 20.7944 10.6071 20.607L0.707093 10.707C0.519622 10.5194 0.414307 10.2651 0.414307 9.99998C0.414307 9.73481 0.519622 9.4805 0.707093 9.29298L9.90009 0.0999756ZM12.7281 8.58598C12.9138 8.77166 13.1344 8.91895 13.377 9.01942C13.6197 9.11989 13.8798 9.17157 14.1424 9.17153C14.4051 9.17148 14.6652 9.1197 14.9078 9.01915C15.1504 8.91859 15.3709 8.77123 15.5566 8.58548C15.7423 8.39972 15.8896 8.17921 15.99 7.93654C16.0905 7.69386 16.1422 7.43377 16.1421 7.17112C16.1421 6.90847 16.0903 6.6484 15.9898 6.40576C15.8892 6.16312 15.7418 5.94266 15.5561 5.75698C15.3703 5.57129 15.1498 5.424 14.9072 5.32353C14.6645 5.22306 14.4044 5.17138 14.1417 5.17142C13.6113 5.17152 13.1026 5.38233 12.7276 5.75748C12.3526 6.13262 12.1419 6.64138 12.142 7.17183C12.1421 7.70228 12.3529 8.21096 12.7281 8.58598Z" fill="white"/>
</svg>
